<svg width="21" height="21" viewBox="0 0 21 21" fill="none" xmlns="http://www.w3.org/2000/svg">
<path d="M10.3845 0.90033C8.40671 0.90033 6.47332 1.48682 4.82882 2.58563C3.18433 3.68445 1.90261 5.24623 1.14573 7.07349C0.388854 8.90076 0.190821 10.9114 0.576673 12.8512C0.962525 14.791 1.91493 16.5729 3.31346 17.9714C4.71198 19.3699 6.49381 20.3223 8.43362 20.7082C10.3734 21.094 12.3841 20.896 14.2114 20.1391C16.0386 19.3822 17.6004 18.1005 18.6992 16.456C19.798 14.8115 20.3845 12.8781 20.3845 10.9003C20.3845 9.58711 20.1259 8.28675 19.6233 7.07349C19.1208 5.86024 18.3842 4.75785 17.4556 3.82926C16.527 2.90068 15.4246 2.16408 14.2114 1.66153C12.9981 1.15899 11.6977 0.90033 10.3845 0.90033ZM10.3845 18.9003C8.80228 18.9003 7.25556 18.4311 5.93996 17.5521C4.62437 16.673 3.59899 15.4236 2.99349 13.9618C2.38799 12.5 2.22956 10.8915 2.53824 9.33961C2.84693 7.78776 3.60885 6.3623 4.72767 5.24348C5.84649 4.12466 7.27196 3.36273 8.8238 3.05405C10.3757 2.74537 11.9842 2.90379 13.446 3.50929C14.9078 4.11479 16.1572 5.14017 17.0363 6.45577C17.9153 7.77136 18.3845 9.31808 18.3845 10.9003C18.3845 13.0221 17.5417 15.0569 16.0414 16.5572C14.5411 18.0575 12.5063 18.9003 10.3845 18.9003ZM14.3845 9.90033H11.3845V6.90033C11.3845 6.63511 11.2792 6.38076 11.0916 6.19322C10.9041 6.00569 10.6497 5.90033 10.3845 5.90033C10.1193 5.90033 9.86496 6.00569 9.67742 6.19322C9.48988 6.38076 9.38453 6.63511 9.38453 6.90033V9.90033H6.38453C6.11931 9.90033 5.86496 10.0057 5.67742 10.1932C5.48988 10.3808 5.38453 10.6351 5.38453 10.9003C5.38453 11.1655 5.48988 11.4199 5.67742 11.6074C5.86496 11.795 6.11931 11.9003 6.38453 11.9003H9.38453V14.9003C9.38453 15.1655 9.48988 15.4199 9.67742 15.6074C9.86496 15.795 10.1193 15.9003 10.3845 15.9003C10.6497 15.9003 10.9041 15.795 11.0916 15.6074C11.2792 15.4199 11.3845 15.1655 11.3845 14.9003V11.9003H14.3845C14.6497 11.9003 14.9041 11.795 15.0916 11.6074C15.2792 11.4199 15.3845 11.1655 15.3845 10.9003C15.3845 10.6351 15.2792 10.3808 15.0916 10.1932C14.9041 10.0057 14.6497 9.90033 14.3845 9.90033Z" fill="#6750A4"/>
</svg>
