<svg width="20" height="20" viewBox="0 0 11 18" fill="none" xmlns="http://www.w3.org/2000/svg">
<path d="M1.04177 9.91857L7.88636 16.7632C8.03643 16.9145 8.21497 17.0346 8.41168 17.1165C8.6084 17.1985 8.8194 17.2407 9.0325 17.2407C9.24561 17.2407 9.4566 17.1985 9.65332 17.1165C9.85004 17.0346 10.0286 16.9145 10.1786 16.7632C10.4793 16.4607 10.6481 16.0516 10.6481 15.6251C10.6481 15.1986 10.4793 14.7895 10.1786 14.487L4.46406 8.77242L10.1786 3.05784C10.4793 2.75538 10.6481 2.34623 10.6481 1.91976C10.6481 1.49329 10.4793 1.08414 10.1786 0.781685C10.0278 0.63207 9.84892 0.513704 9.65224 0.433369C9.45556 0.353035 9.24495 0.312315 9.0325 0.313543C8.82005 0.312315 8.60945 0.353035 8.41277 0.433368C8.21609 0.513704 8.0372 0.63207 7.88636 0.781685L1.04177 7.62628C0.890462 7.77634 0.770368 7.95489 0.688413 8.1516C0.606458 8.34832 0.564262 8.55932 0.564262 8.77242C0.564262 8.98553 0.606457 9.19652 0.688413 9.39324C0.770368 9.58996 0.890462 9.7685 1.04177 9.91857Z" fill="black"/>
</svg>
