<svg width="20" height="20" viewBox="0 0 11 18" fill="none" xmlns="http://www.w3.org/2000/svg">
<path d="M9.95823 9.91857L3.11364 16.7632C2.96357 16.9145 2.78503 17.0346 2.58832 17.1165C2.3916 17.1985 2.1806 17.2407 1.9675 17.2407C1.75439 17.2407 1.5434 17.1985 1.34668 17.1165C1.14996 17.0346 0.971421 16.9145 0.821352 16.7632C0.520689 16.4607 0.351929 16.0516 0.351929 15.6251C0.351929 15.1986 0.520689 14.7895 0.821352 14.487L6.53594 8.77242L0.821351 3.05784C0.520688 2.75538 0.351927 2.34623 0.351927 1.91976C0.351927 1.49329 0.520688 1.08414 0.821351 0.781685C0.97219 0.63207 1.15108 0.513704 1.34776 0.433369C1.54444 0.353035 1.75505 0.312315 1.9675 0.313543C2.17995 0.312315 2.39055 0.353035 2.58723 0.433368C2.78391 0.513704 2.9628 0.63207 3.11364 0.781685L9.95823 7.62628C10.1095 7.77634 10.2296 7.95489 10.3116 8.1516C10.3935 8.34832 10.4357 8.55932 10.4357 8.77242C10.4357 8.98553 10.3935 9.19652 10.3116 9.39324C10.2296 9.58996 10.1095 9.7685 9.95823 9.91857Z" fill="black"/>
</svg>
