<svg width="24" height="24" viewBox="0 0 21 21" fill="none" xmlns="http://www.w3.org/2000/svg">
<path d="M15.4942 2.07704C11.5957 -0.122962 6.79755 0.577039 3.59879 3.57704V1.77704C3.59879 1.17704 3.19895 0.777039 2.59918 0.777039C1.99942 0.777039 1.59957 1.17704 1.59957 1.77704V6.27704C1.59957 6.87704 1.99942 7.27704 2.59918 7.27704H7.09743C7.6972 7.27704 8.09704 6.87704 8.09704 6.27704C8.09704 5.67704 7.6972 5.27704 7.09743 5.27704H4.69837C6.19778 3.67704 8.29697 2.77704 10.4961 2.77704C14.8944 2.77704 18.493 6.37704 18.493 10.777C18.493 15.177 14.8944 18.777 10.4961 18.777C6.09782 18.777 2.49922 15.177 2.49922 10.777C2.49922 10.177 2.09938 9.77704 1.49961 9.77704C0.899844 9.77704 0.5 10.177 0.5 10.777C0.5 16.277 4.99825 20.777 10.4961 20.777C14.0947 20.777 17.3934 18.877 19.1927 15.777C21.8917 10.977 20.2923 4.87704 15.4942 2.07704ZM10.4961 6.77704C9.89634 6.77704 9.4965 7.17704 9.4965 7.77704V10.777C9.4965 11.377 9.89634 11.777 10.4961 11.777H12.4953C13.0951 11.777 13.4949 11.377 13.4949 10.777C13.4949 10.177 13.0951 9.77704 12.4953 9.77704H11.4957V7.77704C11.4957 7.17704 11.0959 6.77704 10.4961 6.77704Z" fill="#130F04"/>
</svg>
